<svg version="1.1" viewBox="0.0 0.0 1532.6036745406825 416.78477690288713" fill="none" stroke="none" stroke-linecap="square" stroke-miterlimit="10" xmlns:xlink="http://www.w3.org/1999/xlink" xmlns="http://www.w3.org/2000/svg"><clipPath id="p.0"><path d="m0 0l1532.6036 0l0 416.7848l-1532.6036 0l0 -416.7848z" clip-rule="nonzero"/></clipPath><g clip-path="url(#p.0)"><path fill="#000000" fill-opacity="0.0" d="m0 0l1532.6036 0l0 416.7848l-1532.6036 0z" fill-rule="evenodd"/><path fill="#000000" fill-opacity="0.0" d="m8.0577425E-5 -0.001312336l1601.7953 0l0 404.53543l-1601.7953 0z" fill-rule="evenodd"/><path fill="#000000" d="m172.8907 144.99103l-27.546875 94.03125q28.09375 -0.375 36.546875 -2.203125q13.765625 -2.765625 24.96875 -11.671875q11.203125 -8.90625 18.734375 -24.6875l7.15625 0l-28.453125 98.234375l-7.34375 0q1.828125 -9.546875 1.828125 -15.234375q0 -11.390625 -4.6875 -18.171875q-4.671875 -6.796875 -12.03125 -9.28125q-7.34375 -2.484375 -40.390625 -3.21875l-22.406242 77.6875l-4.40625 15.609375q-0.921875 4.59375 -0.921875 9.0q0 6.421875 2.484375 10.09375q2.484375 3.671875 7.984375 5.78125q5.5156174 2.109375 20.937492 2.296875l-2.015625 6.796875l-124.328125 0l2.015625 -6.796875q18.0 0 26.265625 -6.703125q8.265625 -6.703125 14.875 -29.28125l44.437504 -152.42188q6.984375 -24.0625 7.34375 -30.859375q-0.359375 -6.421875 -5.875 -10.921875q-5.5 -4.5 -22.578125 -5.234375l1.828125 -6.796875l203.46875 0l-16.703125 65.75l-6.796875 0q-1.109375 -20.578125 -6.4375 -30.578125q-5.3125153 -10.015625 -17.531265 -15.609375q-12.203125 -5.609375 -39.015625 -5.609375l-31.40625 0zm215.96098 -19.640625l-60.78125 206.76562q-5.328125 18.375 -5.328125 22.96875q0 2.375 1.5625 4.03125q1.5625 1.65625 3.390625 1.65625q3.3125 0 6.25 -2.578125q8.8125 -7.15625 19.640625 -24.234375l7.171875 3.3125q-17.453125 27.90625 -34.34375 39.84375q-11.578125 8.078125 -24.609375 8.078125q-12.125 0 -19.28125 -6.515625q-7.15625 -6.515625 -7.15625 -15.703125q0 -6.796875 4.40625 -21.859375l49.578125 -169.3125q4.046875 -13.953125 4.046875 -18.546875q0 -4.40625 -3.859375 -6.96875q-5.140625 -3.6875 -15.609375 -3.125l2.015625 -6.984375l61.890625 -10.828125l11.015625 0zm109.084625 84.46875q14.4999695 0 27.265594 6.703125q12.765625 6.703125 19.28125 18.640625q6.515625 11.9375 6.515625 26.4375q0 29.75 -16.625 59.5q-16.609375 29.75 -43.796844 46.921875q-27.171875 17.171875 -54.71875 17.171875q-24.96875 0 -38.65625 -14.875q-13.671875 -14.875 -13.671875 -36.359375q0 -25.53125 10.1875 -47.84375q10.1875 -22.3125 25.890625 -38.921875q15.703125 -16.625 36.078125 -27.0q20.390625 -10.375 42.25 -10.375zm-7.53125 9.734375q-9.734375 0 -16.15625 5.6875q-12.859375 11.578125 -29.03125 54.09375q-16.15625 42.5 -16.15625 76.65625q0 8.453125 5.140625 13.96875q5.15625 5.5 12.125 5.5q7.171875 0 12.671875 -4.40625q8.078125 -6.609375 19.828125 -29.65625q11.765625 -23.046875 19.28125 -50.859375q7.53125 -27.828125 7.53125 -50.96875q0 -9.546875 -4.59375 -14.78125q-4.578125 -5.234375 -10.640625 -5.234375zm233.7656 -9.734375l13.59375 128.92188q27.734375 -27.375 36.171875 -43.25q8.453125 -15.890625 8.453125 -26.546875q0 -4.03125 -1.84375 -8.0625q-1.828125 -4.046875 -7.34375 -11.203125q-5.5 -7.171875 -6.234375 -9.0q-1.296875 -3.5 -1.296875 -8.453125q0 -9.375 6.421875 -15.890625q6.4375 -6.515625 16.171875 -6.515625q9.734375 0 15.421875 6.609375q8.078125 9.546875 8.078125 22.03125q0 20.390625 -19.46875 53.453125q-19.453125 33.046875 -88.875 93.28125l-7.34375 0l-11.390625 -112.75l-79.328125 112.75l-7.890625 0q2.75 -51.046875 2.75 -95.484375q0 -29.015625 -3.125 -41.875q-1.828125 -7.53125 -6.515625 -11.390625q-4.6875 -3.859375 -10.1875 -3.859375q-2.9375 0 -7.53125 0.734375l0 -6.78125l63.171875 -16.71875q5.140625 14.328125 6.984375 27.0q3.109375 19.46875 3.109375 45.359375q0 9.171875 -0.734375 27.90625l71.078125 -100.265625l7.703125 0z" fill-rule="nonzero"/><path fill="#000000" d="m841.241 380.05353l48.390625 -241.96875l6.921875 0l-47.015625 235.40625l144.14062 0l-1.375 6.5625l-151.0625 0zm194.27106 0l35.59375 -178.71875l6.921875 0l-35.609375 178.71875l-6.90625 0zm50.125 -228.14062q-3.453125 0 -5.875 -2.421875q-2.421875 -2.421875 -2.421875 -5.875q0 -3.796875 2.9375 -6.734375q2.9375 -2.953125 6.734375 -2.953125q3.46875 0 5.875 2.421875q2.421875 2.421875 2.421875 5.875q0 3.8125 -2.9375 6.75q-2.9375 2.9375 -6.734375 2.9375zm150.35547 48.390625q24.890625 0 39.75 9.515625q14.875 9.5 20.046875 26.265625q5.1875 16.765625 0.703125 38.53125l-21.09375 105.4375l-6.90625 0l21.078125 -105.4375q6.234375 -31.453125 -7.421875 -49.59375q-13.65625 -18.15625 -46.84375 -18.15625q-33.875 0 -56.6875 18.84375q-22.8125 18.84375 -30.078125 55.140625l-19.703125 99.203125l-6.90625 0l35.59375 -178.71875l6.921875 0l-10.375 51.859375l-3.453125 1.71875q12.796875 -28.6875 34.90625 -41.640625q22.125 -12.96875 50.46875 -12.96875zm191.15869 180.78125q-24.546875 0 -42.34375 -8.640625q-17.796875 -8.640625 -27.140625 -25.046875q-9.328125 -16.421875 -9.328125 -39.9375q0 -30.421875 12.4375 -54.609375q12.453125 -24.203125 34.046875 -38.375q21.609375 -14.171875 48.921875 -14.171875q22.8125 0 39.0625 8.640625q16.25 8.640625 25.0625 24.890625q8.8125 16.25 8.8125 39.0625q0 4.484375 -0.515625 9.15625q-0.515625 4.671875 -1.21875 8.46875l-161.07812 0l1.390625 -6.5625l156.57812 0l-2.765625 3.796875q4.15625 -26.265625 -3.453125 -44.234375q-7.609375 -17.984375 -23.6875 -27.3125q-16.0625 -9.34375 -38.1875 -9.34375q-25.234375 0 -45.453125 13.140625q-20.21875 13.140625 -31.8125 35.78125q-11.578125 22.640625 -11.578125 51.671875q0 32.5 18.671875 49.78125q18.671875 17.28125 53.921875 17.28125q20.40625 0 37.34375 -7.078125q16.9375 -7.09375 27.640625 -19.53125l4.15625 4.484375q-10.71875 12.796875 -29.21875 20.75q-18.484375 7.9375 -40.265625 7.9375z" fill-rule="nonzero"/></g></svg>