<svg width="230" height="58" viewBox="0 0 230 58" fill="none" xmlns="http://www.w3.org/2000/svg" role="img" aria-labelledby="title desc">
  <title id="title">Siamak Hair Design Toronto logo</title>
  <desc id="desc">A modern Siamak Hair Design Toronto salon wordmark with a flowing hair monogram.</desc>
  <rect x="1" y="1" width="56" height="56" rx="28" fill="#171514"/>
  <path d="M37.2 15.2C34.9 13.2 31.9 12.2 28.3 12.5C23.2 12.9 19.8 15.8 20.1 19.8C20.3 23.4 23.2 24.9 28.7 26C34.4 27.1 37.8 29.2 38.1 34C38.4 39.3 34.1 42.7 28.4 43.1C24 43.4 20.1 42 17.2 39.1" stroke="#FFF9F3" stroke-width="2.4" stroke-linecap="round"/>
  <path d="M16.8 18.6C22.1 8.9 37.4 8.3 43.7 18.2" stroke="#C9A087" stroke-width="2" stroke-linecap="round"/>
  <path d="M42.2 39.2C36.5 48.2 21.3 48.3 14.5 38.3" stroke="#C9A087" stroke-width="2" stroke-linecap="round"/>
  <path d="M45.2 28.3C39.5 25.4 34.2 25.3 29.2 28.1" stroke="#C9A087" stroke-width="1.6" stroke-linecap="round"/>
  <text x="72" y="27" fill="#171514" font-family="Cormorant Garamond, Georgia, serif" font-size="29" font-weight="600" letter-spacing="0.5">Siamak</text>
  <text x="73" y="43" fill="#756F69" font-family="Manrope, Arial, sans-serif" font-size="10.5" font-weight="800" letter-spacing="1.5">HAIR DESIGN TORONTO</text>
  <path d="M178 23.8C186 18.5 198.8 18.5 207.5 24.2" stroke="#C9A087" stroke-width="1.5" stroke-linecap="round"/>
</svg>
